<svg xmlns="http://www.w3.org/2000/svg" width="159.01" height="22.768" viewBox="0 0 159.01 22.768">
  <g id="Ava_Logo_Desktop_1920" data-name="Ava Logo Desktop 1920" transform="translate(0 -75.416)">
    <g id="Layer_1" data-name="Layer 1" transform="translate(66.37 92.655)">
      <g id="Group_4513" data-name="Group 4513">
        <path id="Path_10525" data-name="Path 10525" d="M435.042,169.762h-1.613v-.652H437.4v.652h-1.613v4.533h-.743Z" transform="translate(-433.429 -169.019)" fill="#2257a7"/>
        <path id="Path_10526" data-name="Path 10526" d="M462.073,169.11h1.269c1.026,0,2.015.162,2.015,1.4a1.211,1.211,0,0,1-1.07,1.18v.016c.228.088.34.2.5.519l.981,2.066h-.846l-.794-1.8c-.23-.506-.477-.506-.872-.506h-.444v2.305h-.742Zm.742,2.227h.632c.705,0,1.12-.311,1.12-.811,0-.467-.355-.765-1.039-.765h-.713Z" transform="translate(-457.376 -169.019)" fill="#2257a7"/>
        <path id="Path_10527" data-name="Path 10527" d="M490.794,169.11h.781l2.193,5.185h-.811l-.529-1.307h-2.539l-.527,1.307h-.781Zm.363.7-1.031,2.571h2.065Z" transform="translate(-479.538 -169.019)" fill="#2257a7"/>
        <path id="Path_10528" data-name="Path 10528" d="M524.745,169.11h1.53a2.54,2.54,0,0,1,2.766,2.545,2.455,2.455,0,0,1-2.766,2.639h-1.53Zm.742,4.529h.781a1.744,1.744,0,0,0,1.984-1.952,1.811,1.811,0,0,0-1.9-1.926h-.869Z" transform="translate(-509.773 -169.019)" fill="#2257a7"/>
        <path id="Path_10529" data-name="Path 10529" d="M557.334,169.11h2.905v.652h-2.163v1.517h1.968v.652h-1.968v1.709h2.163v.655h-2.905Z" transform="translate(-537.019 -169.019)" fill="#2257a7"/>
        <path id="Path_10530" data-name="Path 10530" d="M593.126,169.11h.817l1.242,4.442h.013l1.109-4.442h1.054l1.122,4.442h.013l1.242-4.442h.788l-1.6,5.185h-.957l-1.128-4.533h-.016l-1.135,4.533h-1Z" transform="translate(-566.942 -169.019)" fill="#2257a7"/>
        <rect id="Rectangle_1606" data-name="Rectangle 1606" width="0.746" height="5.185" transform="translate(34.446 0.091)" fill="#2257a7"/>
        <path id="Path_10531" data-name="Path 10531" d="M655.289,169.762h-1.611v-.652h3.965v.652h-1.611v4.533h-.743Z" transform="translate(-617.565 -169.019)" fill="#2257a7"/>
        <path id="Path_10532" data-name="Path 10532" d="M683.755,169.11h.743v2.169h2.483V169.11h.743v5.185h-.743v-2.364H684.5v2.364h-.743Z" transform="translate(-642.711 -169.019)" fill="#2257a7"/>
        <path id="Path_10533" data-name="Path 10533" d="M733.284,169.5a2.1,2.1,0,0,0-1.07-.289,2.029,2.029,0,0,0-.039,4.056,2.563,2.563,0,0,0,1.132-.253l.046.72a3.276,3.276,0,0,1-1.18.185,2.555,2.555,0,0,1-2.737-2.7,2.586,2.586,0,0,1,2.74-2.659,2.84,2.84,0,0,1,1.171.224Z" transform="translate(-680.901 -168.556)" fill="#2257a7"/>
        <path id="Path_10534" data-name="Path 10534" d="M758.985,168.556a2.688,2.688,0,1,1-2.5,2.682,2.446,2.446,0,0,1,2.5-2.682m0,4.711c1.2,0,1.709-1,1.709-2.03,0-1.054-.564-2.036-1.709-2.027-1.141-.01-1.706.973-1.706,2.027,0,1.031.512,2.03,1.706,2.03" transform="translate(-703.519 -168.556)" fill="#2257a7"/>
        <path id="Path_10535" data-name="Path 10535" d="M793.566,169.11h1.012l2.286,4.173h.016V169.11h.743v5.185h-.953l-2.347-4.264h-.013v4.264h-.743Z" transform="translate(-734.517 -169.019)" fill="#2257a7"/>
        <path id="Path_10536" data-name="Path 10536" d="M826.274,169.11h2.756v.652h-2.01v1.517h1.923v.652H827.02v2.364h-.746Z" transform="translate(-761.862 -169.019)" fill="#2257a7"/>
        <rect id="Rectangle_1607" data-name="Rectangle 1607" width="0.742" height="5.185" transform="translate(68.208 0.091)" fill="#2257a7"/>
        <path id="Path_10537" data-name="Path 10537" d="M861.948,169.11h1.53a2.539,2.539,0,0,1,2.762,2.545,2.452,2.452,0,0,1-2.762,2.639h-1.53Zm.742,4.529h.781a1.741,1.741,0,0,0,1.981-1.952,1.809,1.809,0,0,0-1.893-1.926h-.869Z" transform="translate(-791.687 -169.019)" fill="#2257a7"/>
        <path id="Path_10538" data-name="Path 10538" d="M894.517,169.11h2.905v.652h-2.159v1.517h1.968v.652h-1.968v1.709h2.159v.655h-2.905Z" transform="translate(-818.916 -169.019)" fill="#2257a7"/>
        <path id="Path_10539" data-name="Path 10539" d="M919.632,169.11h1.008l2.289,4.173h.016V169.11h.742v5.185h-.95l-2.347-4.264h-.016v4.264h-.742Z" transform="translate(-839.913 -169.019)" fill="#2257a7"/>
        <path id="Path_10540" data-name="Path 10540" d="M954.839,169.5a2.09,2.09,0,0,0-1.067-.289,2.029,2.029,0,0,0-.039,4.056,2.551,2.551,0,0,0,1.128-.253l.049.72a3.282,3.282,0,0,1-1.183.185,2.554,2.554,0,0,1-2.733-2.7,2.584,2.584,0,0,1,2.74-2.659,2.824,2.824,0,0,1,1.167.224Z" transform="translate(-866.133 -168.556)" fill="#2257a7"/>
        <path id="Path_10541" data-name="Path 10541" d="M980.716,169.11h2.905v.652h-2.163v1.517h1.968v.652h-1.968v1.709h2.163v.655h-2.905Z" transform="translate(-890.982 -169.019)" fill="#2257a7"/>
      </g>
    </g>
    <g id="Layer_3" data-name="Layer 3" transform="translate(0 75.487)">
      <path id="Path_10542" data-name="Path 10542" d="M41.626,63.85,28.638,86.344h6.55l6.553-11.352,6.553,11.352h6.55L41.858,63.85Z" transform="translate(-28.638 -63.85)" fill="#2882c0"/>
      <path id="Path_10543" data-name="Path 10543" d="M243.787,63.85,230.8,86.344h6.55L243.9,74.992l6.553,11.352h6.55L244.021,63.85Z" transform="translate(-197.654 -63.85)" fill="#2882c0"/>
      <path id="Path_10544" data-name="Path 10544" d="M149.376,63.85,142.825,75.2,136.27,63.85h-6.55l13.1,22.7,13.1-22.7Z" transform="translate(-113.146 -63.85)" fill="#2882c0"/>
    </g>
    <g id="Layer_2" data-name="Layer 2" transform="translate(66.71 75.416)">
      <path id="Path_10545" data-name="Path 10545" d="M716.249,67.653a3.122,3.122,0,0,0-1.6-2.831,6.728,6.728,0,0,0-3.538-.668h-4.165V77.642h2.266V71.414h1.209l4.17,6.228h2.469L712.6,71.167c.057-.009.019-.009.019-.009,2.425-.3,3.627-1.606,3.627-3.5m-2.386.079a2.677,2.677,0,0,1-2.972,2.973h-1.677V64.842h1.557a3.836,3.836,0,0,1,1.9.384,2.707,2.707,0,0,1,1.19,2.507" transform="translate(-662.44 -64.033)" fill="#2882c0"/>
      <path id="Path_10546" data-name="Path 10546" d="M629.754,64.154V64.9h4.792v12.74h2.266V64.9h4.773v-.748Z" transform="translate(-597.904 -64.033)" fill="#2882c0"/>
      <path id="Path_10547" data-name="Path 10547" d="M784.821,63.416h-1.092l-5.906,13.609h1.5l1.658-4.389h5.3l1.76,4.389h2.507Zm-3.557,8.473,2.282-6.066,2.428,6.066Z" transform="translate(-721.695 -63.416)" fill="#2882c0"/>
      <path id="Path_10548" data-name="Path 10548" d="M871.191,65.1c-1.317-.748-2.45-.95-5.159-.95h-3.719V77.642h3.295c2.991,0,4.146-.206,5.539-1.012,1.9-1.073,2.915-3.114,2.915-5.863A6.187,6.187,0,0,0,871.191,65.1Zm-.81,10.25c-.93,1.133-2.146,1.557-4.491,1.557h-1.313V64.882h1.579a5.38,5.38,0,0,1,3.741,1.031c1.13.95,1.719,2.669,1.719,5.013A6.944,6.944,0,0,1,870.381,75.354Z" transform="translate(-792.332 -64.033)" fill="#2882c0"/>
      <path id="Path_10549" data-name="Path 10549" d="M953.594,64.154h-8.412V77.642h8.732v-.749h-6.466V71.069h5.475v-.747h-5.475V64.9h6.146Z" transform="translate(-861.614 -64.033)" fill="#2882c0"/>
      <path id="Path_10550" data-name="Path 10550" d="M442.5,63.416h-1.09l-5.9,13.609H437l1.658-4.389h5.3l1.758,4.389h2.51Zm-3.557,8.473,2.285-6.066,2.426,6.066Zm12.5,5.275h1.174l5.6-13.627h-1.516l-3.925,11.04L448.5,63.537h-2.487ZM462.5,63.416H461.4L455.5,77.025H457l1.658-4.389h5.3l1.757,4.389h2.51Zm-3.557,8.473,2.282-6.066,2.427,6.066Z" transform="translate(-435.501 -63.416)" fill="#2257a7"/>
    </g>
  </g>
</svg>
