<svg id="Component_252_7" data-name="Component 252 – 7" xmlns="http://www.w3.org/2000/svg" width="30" height="30" viewBox="0 0 30 30">
  <rect id="Rectangle_1673" data-name="Rectangle 1673" width="30" height="30" rx="5" fill="#f89600"/>
  <path id="Icon_awesome-link" data-name="Icon awesome-link" d="M10.946,6.213a5.092,5.092,0,0,1,.012,7.192l-.012.012L8.694,15.67a5.094,5.094,0,1,1-7.2-7.2L2.733,7.222a.536.536,0,0,1,.915.355,6.176,6.176,0,0,0,.325,1.767.539.539,0,0,1-.127.557l-.439.439A2.413,2.413,0,1,0,6.8,13.774L9.05,11.522a2.412,2.412,0,0,0,0-3.413A2.511,2.511,0,0,0,8.7,7.822.537.537,0,0,1,8.471,7.4a1.335,1.335,0,0,1,.392-1l.706-.706a.538.538,0,0,1,.69-.058,5.11,5.11,0,0,1,.688.576ZM15.67,1.49a5.1,5.1,0,0,0-7.2,0L6.213,3.742,6.2,3.754a5.1,5.1,0,0,0,.7,7.768.538.538,0,0,0,.69-.058l.706-.706a1.335,1.335,0,0,0,.392-1,.537.537,0,0,0-.233-.422,2.511,2.511,0,0,1-.347-.287,2.412,2.412,0,0,1,0-3.413l2.252-2.252A2.413,2.413,0,1,1,13.752,6.82l-.439.439a.539.539,0,0,0-.127.557,6.176,6.176,0,0,1,.325,1.767.536.536,0,0,0,.915.355L15.67,8.694a5.1,5.1,0,0,0,0-7.2Z" transform="translate(6.494 6.83)" fill="#f4f6f6"/>
</svg>
