<svg id="Group_4713" data-name="Group 4713" xmlns="http://www.w3.org/2000/svg" width="46.075" height="45" viewBox="0 0 46.075 45">
  <rect id="Rectangle_1673" data-name="Rectangle 1673" width="46.075" height="45" rx="5" transform="translate(0)" fill="#f89600"/>
  <path id="Icon_awesome-link" data-name="Icon awesome-link" d="M16.812,9.543a7.82,7.82,0,0,1,.019,11.046l-.019.019-3.459,3.459A7.824,7.824,0,0,1,2.288,13l1.91-1.91a.823.823,0,0,1,1.4.546,9.485,9.485,0,0,0,.5,2.714.828.828,0,0,1-.195.855l-.674.674a3.706,3.706,0,1,0,5.207,5.274L13.9,17.7a3.705,3.705,0,0,0,0-5.241,3.856,3.856,0,0,0-.532-.441.825.825,0,0,1-.358-.649,2.05,2.05,0,0,1,.6-1.534L14.7,8.747a.827.827,0,0,1,1.06-.089,7.849,7.849,0,0,1,1.056.885Zm7.254-7.255A7.833,7.833,0,0,0,13,2.288L9.542,5.747l-.019.019A7.825,7.825,0,0,0,10.6,17.7a.827.827,0,0,0,1.06-.089l1.084-1.084a2.05,2.05,0,0,0,.6-1.534.825.825,0,0,0-.358-.649,3.856,3.856,0,0,1-.532-.441,3.705,3.705,0,0,1,0-5.241L15.913,5.2a3.706,3.706,0,1,1,5.207,5.274l-.674.674a.828.828,0,0,0-.195.855,9.485,9.485,0,0,1,.5,2.714.823.823,0,0,0,1.4.546l1.91-1.91a7.832,7.832,0,0,0,0-11.065Z" transform="translate(9.974 9.919)" fill="#f4f6f6"/>
</svg>
