<svg xmlns="http://www.w3.org/2000/svg" width="111.002" height="121" viewBox="0 0 111.002 121">
  <g id="_1" data-name="1" transform="translate(0.5 0.5)">
    <path id="Union_5" data-name="Union 5" d="M57.537,120l-.1,0a.986.986,0,1,1,.1-1.97l.094,0A.986.986,0,0,1,57.586,120Zm4.906-.94a.989.989,0,0,1,.947-1.032l.095,0a.986.986,0,1,1,.1,1.97l-.1,0h-.049A.99.99,0,0,1,62.443,119.059Zm-10.926.357-.1-.014a.987.987,0,1,1,.3-1.951l.094.013a.986.986,0,0,1-.145,1.963A1.027,1.027,0,0,1,51.517,119.417Zm16.857-.836a.988.988,0,0,1,.839-1.121l.094-.013a.987.987,0,1,1,.3,1.95l-.1.014a1,1,0,0,1-.147.011A.993.993,0,0,1,68.374,118.58Zm-22.792-.338-.1-.025a.985.985,0,0,1-.719-1.2,1,1,0,0,1,1.211-.713l.093.023a.986.986,0,0,1-.243,1.943A1.033,1.033,0,0,1,45.581,118.243Zm28.646-.722a.986.986,0,0,1,.721-1.2l.094-.023a1,1,0,0,1,1.211.713.985.985,0,0,1-.72,1.2l-.094.024a1,1,0,0,1-1.211-.714Zm-34.433-1.036-.1-.034a.984.984,0,0,1-.594-1.265,1,1,0,0,1,1.277-.589l.089.032a.984.984,0,0,1,.6,1.263,1,1,0,0,1-1.275.592Zm40.147-.6a.982.982,0,0,1,.6-1.264l.091-.033a1,1,0,0,1,1.276.59.984.984,0,0,1-.595,1.264l-.092.032a1,1,0,0,1-1.276-.59Zm-45.727-1.724-.091-.043a.983.983,0,0,1-.463-1.318,1,1,0,0,1,1.33-.459l.085.041a.981.981,0,0,1,.466,1.316,1,1,0,0,1-1.328.463Zm51.248-.47a.982.982,0,0,1,.465-1.317l.087-.041a1,1,0,0,1,1.329.459.982.982,0,0,1-.464,1.318l-.088.042a1.013,1.013,0,0,1-.432.1A1,1,0,0,1,85.462,113.693ZM28.9,111.3l-.086-.052a.98.98,0,0,1-.329-1.356,1,1,0,0,1,1.37-.325l.08.049a.981.981,0,0,1,.333,1.355,1,1,0,0,1-1.368.329Zm61.837-.335a.98.98,0,0,1,.328-1.356l.085-.051a1,1,0,0,1,1.369.327.981.981,0,0,1-.329,1.356l-.082.049a1,1,0,0,1-1.37-.325ZM23.9,107.928l-.079-.059a.981.981,0,0,1-.192-1.382,1,1,0,0,1,1.4-.19l.077.058a.979.979,0,0,1,.194,1.382,1,1,0,0,1-1.4.192Zm71.811-.2a.98.98,0,0,1,.2-1.382l.076-.057a1,1,0,0,1,1.395.189.98.98,0,0,1-.191,1.382l-.08.06a1,1,0,0,1-1.4-.193Zm-76.45-3.644-.074-.068a.979.979,0,0,1-.05-1.394,1,1,0,0,1,1.408-.049l.069.063a.981.981,0,0,1,.055,1.394,1,1,0,0,1-1.408.055Zm81.076-.062a.98.98,0,0,1,.052-1.394l.073-.067a1,1,0,0,1,1.407.053.98.98,0,0,1-.053,1.394l-.071.065a1,1,0,0,1-1.408-.051ZM15.026,99.8l-.068-.076a.98.98,0,0,1,.089-1.392,1,1,0,0,1,1.406.089l.062.069a.98.98,0,0,1-.084,1.392,1,1,0,0,1-1.406-.083Zm89.538.073a.979.979,0,0,1-.084-1.392l.063-.07a1,1,0,0,1,1.406-.087.98.98,0,0,1,.087,1.392l-.067.075a1,1,0,0,1-1.406.083ZM11.242,95.129l-.058-.08a.981.981,0,0,1,.225-1.377A1,1,0,0,1,12.8,93.9l.057.077a.98.98,0,0,1-.223,1.377,1,1,0,0,1-1.391-.22Zm97.122.209a.98.98,0,0,1-.224-1.377l.056-.076a1,1,0,0,1,1.39-.226.98.98,0,0,1,.228,1.377l-.058.081a1,1,0,0,1-1.391.221ZM0,59.911A59.034,59.034,0,0,1,4.755,36.59,59.666,59.666,0,0,1,17.718,17.547,60.608,60.608,0,0,1,60.493,0V1.48c-32.532,0-59,26.213-59,58.432A57.969,57.969,0,0,0,9.42,89.184l-1.292.742A59.44,59.44,0,0,1,0,59.911Z" fill="#1187f4" stroke="rgba(0,0,0,0)" stroke-width="1"/>
  </g>
</svg>
