<svg xmlns="http://www.w3.org/2000/svg" width="111.179" height="121.004" viewBox="0 0 111.179 121.004">
  <g id="_2" data-name="2" transform="translate(0.5 0.504)">
    <path id="Union_6" data-name="Union 6" d="M53.885,141.976l-.1-.011a.976.976,0,0,1-.742-.492,1,1,0,0,1-.127-.6.965.965,0,0,1,1.06-.877l.092.01a.993.993,0,0,1,.873,1.086.959.959,0,0,1-1.057.88Zm-5.827-.924-.1-.02a.984.984,0,0,1-.647-.477,1.009,1.009,0,0,1-.113-.693.962.962,0,0,1,1.142-.765l.09.019a1,1,0,0,1,.763,1.167.965.965,0,0,1-.942.789A.955.955,0,0,1,48.058,141.052Zm-5.713-1.506-.09-.029a.98.98,0,0,1-.556-.453,1,1,0,0,1-.09-.785.958.958,0,0,1,1.209-.648l.092.029a1,1,0,0,1,.645,1.239.962.962,0,0,1-.919.693A.953.953,0,0,1,42.345,139.547ZM36.8,137.474l-.091-.039a.985.985,0,0,1-.462-.417,1.006,1.006,0,0,1-.056-.881.956.956,0,0,1,1.269-.518l.085.037a1,1,0,0,1,.523,1.3.955.955,0,0,1-1.267.523Zm-5.319-2.621-.083-.046a.981.981,0,0,1-.379-.376,1,1,0,0,1-.017-.965.955.955,0,0,1,1.312-.393l.085.047a1,1,0,0,1,.394,1.342.953.953,0,0,1-1.313.39Zm-5.041-3.144-.079-.055a.973.973,0,0,1-.295-.323,1,1,0,0,1,.034-1.051.956.956,0,0,1,1.347-.254l.078.055a1,1,0,0,1,.262,1.374.956.956,0,0,1-1.347.255Zm-4.711-3.639-.073-.063a.992.992,0,0,1-.218-.263,1,1,0,0,1,.094-1.13A.955.955,0,0,1,22.9,126.5l.072.062a1,1,0,0,1,.125,1.393.95.95,0,0,1-.737.35A.963.963,0,0,1,21.733,128.07Zm-4.333-4.1-.067-.07a1,1,0,0,1,.012-1.4.958.958,0,0,1,1.371.024l.066.07a1,1,0,0,1-.012,1.4.947.947,0,0,1-.671.278A.966.966,0,0,1,17.4,123.973Zm-3.914-4.517-.061-.078a.97.97,0,0,1-.081-.122,1,1,0,0,1,.232-1.267.96.96,0,0,1,1.363.167l.057.073a1,1,0,0,1-.147,1.388.947.947,0,0,1-.6.213A.971.971,0,0,1,13.487,119.456Zm-3.457-4.888-.053-.084c-.009-.013-.017-.028-.025-.041a.994.994,0,0,1,.31-1.323.963.963,0,0,1,1.341.3l.05.08a1,1,0,0,1-.282,1.365.946.946,0,0,1-.521.156A.974.974,0,0,1,10.03,114.568ZM7.082,109.4l-.022-.043-.046-.089a.992.992,0,0,1,.417-1.328.966.966,0,0,1,1.307.435l.042.084a.991.991,0,0,1-.412,1.328.947.947,0,0,1-.44.108A.977.977,0,0,1,7.082,109.4Zm-2.416-5.386a.956.956,0,0,1-.063-.132l-.036-.093a.987.987,0,0,1,.544-1.278.971.971,0,0,1,1.258.565l.034.088a.987.987,0,0,1-.54,1.28.948.948,0,0,1-.352.068A.978.978,0,0,1,4.666,104.018Zm-1.882-5.6a.993.993,0,0,1-.094-.225l-.027-.1a.969.969,0,1,1,1.865-.526l.026.09a.983.983,0,0,1-.663,1.218.95.95,0,0,1-.261.037A.979.979,0,0,1,2.783,98.413ZM1.46,92.649a.977.977,0,0,1-.116-.32l-.018-.1A.969.969,0,1,1,3.235,91.9l.017.093a.978.978,0,0,1-.779,1.143.957.957,0,0,1-.168.015A.976.976,0,0,1,1.46,92.649ZM.709,86.787a1.019,1.019,0,0,1-.129-.42l-.007-.1a.972.972,0,0,1,.891-1.054.984.984,0,0,1,1.041.918l.008.094a.973.973,0,0,1-.889,1.056l-.072,0A.975.975,0,0,1,.709,86.787Zm.647-5.407a.977.977,0,0,1-.82-.5,1.006,1.006,0,0,1-.131-.517l0-.1a.967.967,0,0,1,.991-.957.989.989,0,0,1,.947,1.018l0,.093a.968.968,0,0,1-.961.962Zm.307-5.895a.98.98,0,0,1-.723-.491,1.01,1.01,0,0,1-.124-.616l.011-.1a.964.964,0,0,1,1.079-.852,1,1,0,0,1,.846,1.107l-.011.095a.958.958,0,0,1-1.078.854Zm.881-5.83a.98.98,0,0,1-.628-.473,1.008,1.008,0,0,1-.109-.713l.022-.1a.96.96,0,0,1,1.159-.737,1,1,0,0,1,.732,1.188l-.02.091a.956.956,0,0,1-1.156.74Zm1.442-5.706a.986.986,0,0,1-.535-.446,1,1,0,0,1-.084-.807l.031-.1a.956.956,0,0,1,1.226-.615,1,1,0,0,1,.614,1.254l-.028.088a.957.957,0,0,1-1.224.621ZM5.975,58.42a.985.985,0,0,1-.445-.409,1,1,0,0,1-.049-.9l.039-.089a.955.955,0,0,1,1.28-.491,1,1,0,0,1,.492,1.309l-.038.087a.955.955,0,0,1-1.28.492ZM30.607,31.2A57.263,57.263,0,0,0,9.636,52.586l-1.264-.745a58.717,58.717,0,0,1,21.5-21.928,57.553,57.553,0,0,1,44.66-5.806A58.814,58.814,0,0,1,94.864,34.285a60.024,60.024,0,0,1,15.542,17.942l-1.256.736C93.2,24.939,57.966,15.176,30.607,31.2Z" transform="translate(-0.406 -21.982)" fill="#1187f4" stroke="rgba(0,0,0,0)" stroke-width="1"/>
  </g>
</svg>
